<?xml version="1.0" encoding="UTF-8" standalone="no"?>
<svg width="872px" height="561px" viewBox="0 0 872 561" version="1.1" xmlns="http://www.w3.org/2000/svg" xmlns:xlink="http://www.w3.org/1999/xlink" xmlns:sketch="http://www.bohemiancoding.com/sketch/ns">
    <!-- Generator: Sketch 3.3 (11970) - http://www.bohemiancoding.com/sketch -->
    <title>BackClouds</title>
    <desc>Created with Sketch.</desc>
    <defs>
        <filter x="-50%" y="-50%" width="200%" height="200%" filterUnits="objectBoundingBox" id="filter-1">
            <feOffset dx="0" dy="2" in="SourceAlpha" result="shadowOffsetOuter1"></feOffset>
            <feGaussianBlur stdDeviation="2" in="shadowOffsetOuter1" result="shadowBlurOuter1"></feGaussianBlur>
            <feColorMatrix values="0 0 0 0 0.357488308   0 0 0 0 0.357488308   0 0 0 0 0.357488308  0 0 0 0.35 0" in="shadowBlurOuter1" type="matrix" result="shadowMatrixOuter1"></feColorMatrix>
            <feMerge>
                <feMergeNode in="shadowMatrixOuter1"></feMergeNode>
                <feMergeNode in="SourceGraphic"></feMergeNode>
            </feMerge>
        </filter>
    </defs>
    <g id="Page-1" stroke="none" stroke-width="1" fill="none" fill-rule="evenodd" sketch:type="MSPage">
        <g id="Long_Portrait-iPhone5" sketch:type="MSArtboardGroup" transform="translate(-366.000000, -32.000000)">
            <g id="BackClouds" sketch:type="MSLayerGroup" transform="translate(370.000000, 34.000000)">
                <path d="M769.130976,392.001187 C769.215926,392.508015 769.260141,393.028668 769.260141,393.559659 C769.260141,398.725118 765.075919,402.910493 759.91442,402.910493 L643.798002,402.910493 C638.634637,402.910493 634.45228,398.723982 634.45228,393.559659 C634.45228,388.3942 638.636502,384.208825 643.798002,384.208825 L669.901789,384.208825 C669.144147,382.742326 668.738673,380.769044 668.738673,378.141988 C668.738673,362.826828 682.519272,352.260141 699.518502,352.260141 C700.503556,352.260141 701.477803,352.295622 702.439187,352.365453 L702.439187,352.365453 C708.398982,340.363025 721.771017,332 737.311457,332 C752.936864,332 766.37009,340.454724 772.280817,352.562647 C782.543066,354.071344 790.299518,361.096272 790.299518,370.770426 C790.299518,371.105464 790.290215,371.428871 790.271827,371.741046 L853.4091,371.741046 C859.002945,371.741046 863.54772,376.276433 863.54772,381.871116 C863.54772,387.46703 859.008505,392.001187 853.4091,392.001187 L769.130976,392.001187 Z" id="BClouds_R2" fill="#FAF1DD" filter="url(#filter-1)" sketch:type="MSShapeGroup"></path>
                <g id="BClouds_L2" transform="translate(0.000000, 416.000000)" fill="#F9F0DC" sketch:type="MSShapeGroup">
                    <path d="M221.128124,38.6683106 C221.131531,38.6683098 221.134938,38.6683093 221.138346,38.6683093 C237.101823,38.6683093 250.141464,48.3331613 250.975933,62.5149701 L250.975933,62.5149701 L255.264789,62.5149701 C262.854688,62.5149701 269,68.6677036 269,76.257485 C269,83.8489353 262.850537,90 255.264789,90 L67.7352106,90 C60.1453117,90 54,83.8472665 54,76.257485 C54,68.6660348 60.1494632,62.5149701 67.7352106,62.5149701 L95.6856433,62.5149701 L95.6856433,62.5149701 C95.1602809,60.6287414 94.8847682,58.4399331 94.8847682,55.9009254 C94.8847682,35.009267 113.538233,20.5950778 136.548449,20.5950778 C138.468691,20.5950778 140.358592,20.6954609 142.209842,20.8916146 C149.053268,8.50316057 163.170259,0 179.474665,0 C202.484881,0 221.138346,16.9360354 221.138346,37.8276939 C221.138346,38.110544 221.134927,38.3907429 221.128124,38.6683106 Z" id="Rectangle-21"></path>
                    <rect id="Rectangle-24" x="145.297059" y="96" width="155.407088" height="20.2903907" rx="25"></rect>
                    <rect id="Rectangle-25" x="0.365189331" y="121.873514" width="173.450608" height="15.217793" rx="25"></rect>
                </g>
                <g id="BClouds_L1" transform="translate(29.000000, 0.000000)" fill="#FAF4E6" sketch:type="MSShapeGroup">
                    <path d="M127.146679,65.9076923 L237.023607,65.9076923 C242.411946,65.9076923 246.780059,61.5437643 246.780059,56.1579419 C246.780059,50.7733034 242.418248,46.4081915 237.023607,46.4081915 L180.397197,46.4081915 L180.397197,46.4081915 C178.405834,36.7398072 168.819353,30.3397504 157.29348,30.3397504 C157.290802,30.3397504 157.288124,30.3397507 157.285446,30.3397514 L157.285446,30.3397514 C157.290793,30.1219675 157.29348,29.9021191 157.29348,29.6801906 C157.29348,13.288274 142.633279,0 124.549004,0 C111.734983,0 100.640105,6.6717106 95.2616943,16.3918822 C93.8067524,16.237977 92.3214345,16.1592149 90.8122706,16.1592149 C72.7279957,16.1592149 58.0677943,27.4688095 58.0677943,43.8607261 C58.0677943,44.765377 58.1124465,45.6133659 58.1998621,46.4081915 L58.1998621,46.4081915 L35.6919359,46.4081915 C30.3035962,46.4081915 25.9354839,50.7721195 25.9354839,56.1579419 C25.9354839,56.8093704 25.999323,57.4458772 26.121107,58.0615385 L10.7696357,58.0615385 C4.9923969,58.0615385 0.309019479,62.7436862 0.309019479,68.5222454 C0.309019479,74.2995343 4.9857633,78.9829523 10.7696357,78.9829523 L117.015047,78.9829523 C122.792286,78.9829523 127.475663,74.3008045 127.475663,68.5222454 C127.475663,67.6194506 127.361461,66.7433671 127.146679,65.9076923 Z" id="Rectangle-31"></path>
                    <rect id="Rectangle-29" x="126.06869" y="86.3076923" width="141.93131" height="15.6910604" rx="25"></rect>
                </g>
            </g>
        </g>
    </g>
</svg>