<?xml version="1.0" encoding="UTF-8" standalone="no"?>
<svg width="124px" height="107px" viewBox="0 0 124 107" version="1.1" xmlns="http://www.w3.org/2000/svg" xmlns:xlink="http://www.w3.org/1999/xlink" xmlns:sketch="http://www.bohemiancoding.com/sketch/ns">
    <!-- Generator: Sketch 3.3 (11970) - http://www.bohemiancoding.com/sketch -->
    <title>Ballon_bucket</title>
    <desc>Created with Sketch.</desc>
    <defs></defs>
    <g id="Page-1" stroke="none" stroke-width="1" fill="none" fill-rule="evenodd" sketch:type="MSPage">
        <g id="Long_Portrait-iPhone5" sketch:type="MSArtboardGroup" transform="translate(-278.000000, -1488.000000)">
            <g id="Ballon_bucket_Min" sketch:type="MSLayerGroup" transform="translate(278.000000, 1322.000000)">
                <g id="Sml_ball" transform="translate(0.000000, 79.000000)" sketch:type="MSShapeGroup">
                    <g id="Ballon_bucket" transform="translate(0.000000, 90.000000)">
                        <path d="M62.1328463,0 L62.1328463,30.0166626" id="Line-3" stroke="#F9F0DC" stroke-width="6" stroke-linecap="square" transform="translate(62.066423, 15.500000) scale(-1, 1) translate(-62.066423, -15.500000) "></path>
                        <path d="M16.9128631,103.379995 L106.314624,103.379995 L120.15982,31 L3.06766697,31 L16.9128631,103.379995 Z" id="Buckets" stroke="#FFFFFF" fill="#FE6D69"></path>
                        <g id="sandBag" transform="translate(0.827208, 34.609658)" stroke="#FFFFFF" fill="#AC6D56">
                            <path d="M6.34796741,12.8594384 C9.85385301,12.8594384 12.6959348,11.0828904 12.6959348,8.89140733 C12.6959348,6.69992426 9.85385301,0.721931516 6.34796741,0.721931516 C2.84208182,0.721931516 0,6.69992426 0,8.89140733 C0,11.0828904 2.84208182,12.8594384 6.34796741,12.8594384 Z" id="Oval-86"></path>
                            <path d="M42.1953128,12.8594384 C45.7011984,12.8594384 48.5432802,11.0828904 48.5432802,8.89140733 C48.5432802,6.69992426 45.7011984,0.721931516 42.1953128,0.721931516 C38.6894272,0.721931516 35.8473454,6.69992426 35.8473454,8.89140733 C35.8473454,11.0828904 38.6894272,12.8594384 42.1953128,12.8594384 Z" id="Oval-86"></path>
                            <path d="M78.0426582,12.7108819 C81.5485438,12.7108819 84.3906256,10.9343339 84.3906256,8.74285082 C84.3906256,6.55136775 81.5485438,0.573375009 78.0426582,0.573375009 C74.5367726,0.573375009 71.6946908,6.55136775 71.6946908,8.74285082 C71.6946908,10.9343339 74.5367726,12.7108819 78.0426582,12.7108819 Z" id="Oval-86"></path>
                            <path d="M115.757053,12.8594384 C119.262938,12.8594384 122.10502,11.0828904 122.10502,8.89140733 C122.10502,6.69992426 119.262938,0.721931516 115.757053,0.721931516 C112.251167,0.721931516 109.409085,6.69992426 109.409085,8.89140733 C109.409085,11.0828904 112.251167,12.8594384 115.757053,12.8594384 Z" id="Oval-86"></path>
                            <path d="M24.2716401,12.8594384 C27.7775257,12.8594384 30.6196075,11.0828904 30.6196075,8.89140733 C30.6196075,6.69992426 27.7775257,0.721931516 24.2716401,0.721931516 C20.7657545,0.721931516 17.9236727,6.69992426 17.9236727,8.89140733 C17.9236727,11.0828904 20.7657545,12.8594384 24.2716401,12.8594384 Z" id="Oval-86"></path>
                            <path d="M60.1189855,12.8594384 C63.6248711,12.8594384 66.4669529,11.0828904 66.4669529,8.89140733 C66.4669529,6.69992426 63.6248711,0.721931516 60.1189855,0.721931516 C56.6130999,0.721931516 53.7710181,6.69992426 53.7710181,8.89140733 C53.7710181,11.0828904 56.6130999,12.8594384 60.1189855,12.8594384 Z" id="Oval-86"></path>
                            <path d="M95.9663309,12.8594384 C99.4722165,12.8594384 102.314298,11.0828904 102.314298,8.89140733 C102.314298,6.69992426 99.4722165,0.721931516 95.9663309,0.721931516 C92.4604453,0.721931516 89.6183635,6.69992426 89.6183635,8.89140733 C89.6183635,11.0828904 92.4604453,12.8594384 95.9663309,12.8594384 Z" id="Oval-86"></path>
                        </g>
                    </g>
                </g>
            </g>
        </g>
    </g>
</svg>