<?xml version="1.0" encoding="UTF-8" standalone="no"?>
<svg width="208px" height="160px" viewBox="0 0 208 160" version="1.1" xmlns="http://www.w3.org/2000/svg" xmlns:xlink="http://www.w3.org/1999/xlink" xmlns:sketch="http://www.bohemiancoding.com/sketch/ns">
    <!-- Generator: Sketch 3.3 (11970) - http://www.bohemiancoding.com/sketch -->
    <title>Ballon_bucket</title>
    <desc>Created with Sketch.</desc>
    <defs></defs>
    <g id="Page-1" stroke="none" stroke-width="1" fill="none" fill-rule="evenodd" sketch:type="MSPage">
        <g id="Long_Portrait-iPhone5" sketch:type="MSArtboardGroup" transform="translate(-267.000000, -761.000000)">
            <g id="Ballon_bucket_MAX" sketch:type="MSLayerGroup" transform="translate(55.000000, 185.000000)">
                <g id="Big_Ballon_bucket_ppp_AVG" sketch:type="MSShapeGroup">
                    <g id="Ballon_bucket" transform="translate(214.968712, 579.651595)">
                        <g id="Lines" transform="translate(0.949702, 0.255447)" stroke="#CA4B4A" stroke-width="6" stroke-linecap="square">
                            <path d="M199.393764,0.524166573 L165.71868,68.1153948" id="Line-2"></path>
                            <path d="M34.2563321,1.15001128 L0.581248009,68.7412395" id="Line-3" transform="translate(17.418790, 34.945625) scale(-1, 1) translate(-17.418790, -34.945625) "></path>
                        </g>
                        <path d="M46.0675154,156.272108 L155.094053,156.272108 L171.978438,68.0280046 L29.1831299,68.0280046 L46.0675154,156.272108 Z" id="Buckets" stroke="#CA4B4A" stroke-width="3" stroke-linecap="round" stroke-linejoin="round" fill="#FE6D69"></path>
                        <g id="sandBag" transform="translate(26.450863, 72.428820)" stroke="#FFFFFF" fill="#AC6D56">
                            <path d="M7.74142367,15.6779455 C12.0168939,15.6779455 15.4828473,13.5120171 15.4828473,10.8402089 C15.4828473,8.16840081 12.0168939,0.880163081 7.74142367,0.880163081 C3.46595344,0.880163081 0,8.16840081 0,10.8402089 C0,13.5120171 3.46595344,15.6779455 7.74142367,15.6779455 Z" id="Oval-86"></path>
                            <path d="M51.4576985,15.6779455 C55.7331688,15.6779455 59.1991222,13.5120171 59.1991222,10.8402089 C59.1991222,8.16840081 55.7331688,0.880163081 51.4576985,0.880163081 C47.1822283,0.880163081 43.7162749,8.16840081 43.7162749,10.8402089 C43.7162749,13.5120171 47.1822283,15.6779455 51.4576985,15.6779455 Z" id="Oval-86"></path>
                            <path d="M95.1739734,15.4968287 C99.4494436,15.4968287 102.915397,13.3309002 102.915397,10.6590921 C102.915397,7.98728397 99.4494436,0.699046244 95.1739734,0.699046244 C90.8985032,0.699046244 87.4325497,7.98728397 87.4325497,10.6590921 C87.4325497,13.3309002 90.8985032,15.4968287 95.1739734,15.4968287 Z" id="Oval-86"></path>
                            <path d="M141.167138,15.6779455 C145.442608,15.6779455 148.908561,13.5120171 148.908561,10.8402089 C148.908561,8.16840081 145.442608,0.880163081 141.167138,0.880163081 C136.891667,0.880163081 133.425714,8.16840081 133.425714,10.8402089 C133.425714,13.5120171 136.891667,15.6779455 141.167138,15.6779455 Z" id="Oval-86"></path>
                            <path d="M29.5995611,15.6779455 C33.8750313,15.6779455 37.3409848,13.5120171 37.3409848,10.8402089 C37.3409848,8.16840081 33.8750313,0.880163081 29.5995611,0.880163081 C25.3240909,0.880163081 21.8581374,8.16840081 21.8581374,10.8402089 C21.8581374,13.5120171 25.3240909,15.6779455 29.5995611,15.6779455 Z" id="Oval-86"></path>
                            <path d="M73.315836,15.6779455 C77.5913062,15.6779455 81.0572596,13.5120171 81.0572596,10.8402089 C81.0572596,8.16840081 77.5913062,0.880163081 73.315836,0.880163081 C69.0403657,0.880163081 65.5744123,8.16840081 65.5744123,10.8402089 C65.5744123,13.5120171 69.0403657,15.6779455 73.315836,15.6779455 Z" id="Oval-86"></path>
                            <path d="M117.032111,15.6779455 C121.307581,15.6779455 124.773534,13.5120171 124.773534,10.8402089 C124.773534,8.16840081 121.307581,0.880163081 117.032111,0.880163081 C112.756641,0.880163081 109.290687,8.16840081 109.290687,10.8402089 C109.290687,13.5120171 112.756641,15.6779455 117.032111,15.6779455 Z" id="Oval-86"></path>
                        </g>
                    </g>
                </g>
            </g>
        </g>
    </g>
</svg>