<?xml version="1.0" encoding="UTF-8" standalone="no"?>
<svg width="276px" height="110px" viewBox="0 0 276 110" version="1.1" xmlns="http://www.w3.org/2000/svg" xmlns:xlink="http://www.w3.org/1999/xlink" xmlns:sketch="http://www.bohemiancoding.com/sketch/ns">
    <!-- Generator: Sketch 3.3 (11970) - http://www.bohemiancoding.com/sketch -->
    <title>BClouds_L1@2x</title>
    <desc>Created with Sketch.</desc>
    <defs></defs>
    <g id="Page-1" stroke="none" stroke-width="1" fill="none" fill-rule="evenodd" sketch:type="MSPage">
        <g id="Long_Portrait-iPhone5" sketch:type="MSArtboardGroup" transform="translate(-395.000000, -32.000000)" fill="#FAF4E6">
            <g id="BackClouds" sketch:type="MSLayerGroup" transform="translate(370.000000, 34.000000)">
                <g id="BClouds_L1" transform="translate(29.000000, 0.000000)" sketch:type="MSShapeGroup">
                    <path d="M127.146679,65.9076923 L237.023607,65.9076923 C242.411946,65.9076923 246.780059,61.5437643 246.780059,56.1579419 C246.780059,50.7733034 242.418248,46.4081915 237.023607,46.4081915 L180.397197,46.4081915 L180.397197,46.4081915 C178.405834,36.7398072 168.819353,30.3397504 157.29348,30.3397504 C157.290802,30.3397504 157.288124,30.3397507 157.285446,30.3397514 L157.285446,30.3397514 C157.290793,30.1219675 157.29348,29.9021191 157.29348,29.6801906 C157.29348,13.288274 142.633279,0 124.549004,0 C111.734983,0 100.640105,6.6717106 95.2616943,16.3918822 C93.8067524,16.237977 92.3214345,16.1592149 90.8122706,16.1592149 C72.7279957,16.1592149 58.0677943,27.4688095 58.0677943,43.8607261 C58.0677943,44.765377 58.1124465,45.6133659 58.1998621,46.4081915 L58.1998621,46.4081915 L35.6919359,46.4081915 C30.3035962,46.4081915 25.9354839,50.7721195 25.9354839,56.1579419 C25.9354839,56.8093704 25.999323,57.4458772 26.121107,58.0615385 L10.7696357,58.0615385 C4.9923969,58.0615385 0.309019479,62.7436862 0.309019479,68.5222454 C0.309019479,74.2995343 4.9857633,78.9829523 10.7696357,78.9829523 L117.015047,78.9829523 C122.792286,78.9829523 127.475663,74.3008045 127.475663,68.5222454 C127.475663,67.6194506 127.361461,66.7433671 127.146679,65.9076923 Z" id="Rectangle-31"></path>
                    <rect id="Rectangle-29" x="126.06869" y="86.3076923" width="141.93131" height="15.6910604" rx="25"></rect>
                </g>
            </g>
        </g>
    </g>
</svg>