<?xml version="1.0" encoding="UTF-8" standalone="no"?>
<svg width="433px" height="158px" viewBox="0 0 433 158" version="1.1" xmlns="http://www.w3.org/2000/svg" xmlns:xlink="http://www.w3.org/1999/xlink" xmlns:sketch="http://www.bohemiancoding.com/sketch/ns">
    <!-- Generator: Sketch 3.3 (11970) - http://www.bohemiancoding.com/sketch -->
    <title>FCloud_L4</title>
    <desc>Created with Sketch.</desc>
    <defs>
        <filter x="-50%" y="-50%" width="200%" height="200%" filterUnits="objectBoundingBox" id="filter-1">
            <feMorphology radius="2" in="SourceAlpha" operator="dilate" result="shadowSpreadOuter1"></feMorphology>
            <feOffset dx="2" dy="2" in="shadowSpreadOuter1" result="shadowOffsetOuter1"></feOffset>
            <feGaussianBlur stdDeviation="2" in="shadowOffsetOuter1" result="shadowBlurOuter1"></feGaussianBlur>
            <feColorMatrix values="0 0 0 0 0.31114477   0 0 0 0 0.31114477   0 0 0 0 0.31114477  0 0 0 0.35 0" in="shadowBlurOuter1" type="matrix" result="shadowMatrixOuter1"></feColorMatrix>
            <feMerge>
                <feMergeNode in="shadowMatrixOuter1"></feMergeNode>
                <feMergeNode in="SourceGraphic"></feMergeNode>
            </feMerge>
        </filter>
        <filter x="-50%" y="-50%" width="200%" height="200%" filterUnits="objectBoundingBox" id="filter-2">
            <feMorphology radius="2" in="SourceAlpha" operator="dilate" result="shadowSpreadOuter1"></feMorphology>
            <feOffset dx="2" dy="2" in="shadowSpreadOuter1" result="shadowOffsetOuter1"></feOffset>
            <feGaussianBlur stdDeviation="2" in="shadowOffsetOuter1" result="shadowBlurOuter1"></feGaussianBlur>
            <feColorMatrix values="0 0 0 0 0.31114477   0 0 0 0 0.31114477   0 0 0 0 0.31114477  0 0 0 0.35 0" in="shadowBlurOuter1" type="matrix" result="shadowMatrixOuter1"></feColorMatrix>
            <feMerge>
                <feMergeNode in="shadowMatrixOuter1"></feMergeNode>
                <feMergeNode in="SourceGraphic"></feMergeNode>
            </feMerge>
        </filter>
    </defs>
    <g id="Page-1" stroke="none" stroke-width="1" fill="none" fill-rule="evenodd" sketch:type="MSPage">
        <g id="Long_Portrait-iPhone5" sketch:type="MSArtboardGroup" transform="translate(-1122.000000, -922.000000)" fill="#FAF1DD">
            <g id="Front_Clouds" sketch:type="MSLayerGroup" transform="translate(561.000000, 190.000000)">
                <g id="FCloud_L4" transform="translate(565.000000, 736.000000)" sketch:type="MSShapeGroup">
                    <rect id="Rectangle-33" filter="url(#filter-1)" x="0.397258552" y="118.883709" width="195.529725" height="27.1162909" rx="25"></rect>
                    <path d="M195.347942,45.5210925 C195.343967,45.5210915 195.339992,45.521091 195.336016,45.521091 C179.8936,45.521091 166.796503,53.2955113 162.218067,65.4106423 L162.218063,65.4106429 L104.152223,65.4106429 C92.1989047,65.4106429 82.4914405,75.11204 82.4914405,87.0793197 C82.4914405,99.0492307 92.1893033,108.747997 104.152223,108.747997 L398.880418,108.747997 C410.833737,108.747997 420.541201,99.0465995 420.541201,87.0793197 C420.541201,75.1094087 410.843338,65.4106429 398.880418,65.4106429 L342.624148,65.4106429 L342.624148,65.4106429 C342.463943,41.1158057 320.764352,24.3771225 294.019663,24.3771225 C291.779484,24.3771225 289.574702,24.4945612 287.415009,24.7240425 C279.431383,10.230725 262.962322,0.28283278 243.941394,0.28283278 C217.097385,0.28283278 195.336016,20.0963896 195.336016,44.5376506 C195.336016,44.8685584 195.340005,45.1963646 195.347942,45.5210925 Z" id="Rectangle-32" filter="url(#filter-2)"></path>
                </g>
            </g>
        </g>
    </g>
</svg>