<?xml version="1.0" encoding="UTF-8" standalone="no"?>
<svg width="979px" height="644px" viewBox="0 0 979 644" version="1.1" xmlns="http://www.w3.org/2000/svg" xmlns:xlink="http://www.w3.org/1999/xlink" xmlns:sketch="http://www.bohemiancoding.com/sketch/ns">
    <!-- Generator: Sketch 3.2.2 (9983) - http://www.bohemiancoding.com/sketch -->
    <title>FloatingAirInst</title>
    <desc>Created with Sketch.</desc>
    <defs></defs>
    <g id="Page-1" stroke="none" stroke-width="1" fill="none" fill-rule="evenodd" sketch:type="MSPage">
        <g id="iPad_instructor" sketch:type="MSArtboardGroup">
            <g id="FloatingAirInst" sketch:type="MSLayerGroup" transform="translate(-2.000000, 0.000000)">
                <rect id="Background" fill-opacity="0.65" fill="#000000" sketch:type="MSShapeGroup" x="0" y="0" width="981" height="644"></rect>
                <text id="3-select" sketch:type="MSTextLayer" font-family="Avenir" font-size="22" font-weight="normal" fill="#FFFFFF">
                    <tspan x="252" y="381"></tspan>
                    <tspan x="252" y="411">3. Select Show on Gallery Wall OR Show on </tspan>
                    <tspan x="252" y="441">Smart Phone to view a visual depiction </tspan>
                    <tspan x="252" y="471">of the gender gap statistics!</tspan>
                </text>
                <text id="Type-something" sketch:type="MSTextLayer" font-family="Exo" font-size="22" font-weight="420" fill="#FFFFFF">
                    <tspan x="518.244781" y="128.095033">2. Select a country </tspan>
                    <tspan x="518.244781" y="157.095033">with a marked capital!</tspan>
                </text>
                <g id="omnidirectional_swipe" transform="translate(235.734344, 167.705033)" stroke="#FFFFFF" fill="#EE6392" sketch:type="MSShapeGroup">
                    <path d="M156.942788,70.4692331 L149.165148,70.4692331 L158.881887,82.7043104 L138.735282,82.7043104 L138.735282,88.8218491 L158.881887,88.8218491 L149.165148,101.056926 L156.942788,101.056926 L169.081125,85.760021 L156.942788,70.4692331 Z" id="Shape"></path>
                    <path d="M13.1383371,101.056926 L20.9129419,101.056926 L11.1992377,88.8218491 L31.3458426,88.8218491 L31.3458426,82.7043104 L11.1992377,82.7043104 L20.9129419,70.4692331 L13.1383371,70.4692331 L1,85.7661385 L13.1383371,101.056926 Z" id="Shape"></path>
                    <path d="M100.216518,159.291082 L100.216518,151.451456 L88.0781813,161.248695 L88.0781813,140.938466 L82.0090128,140.938466 L82.0090128,161.242577 L69.8706758,151.451456 L69.8706758,159.291082 L85.0435971,171.52616 L100.216518,159.291082 Z" id="Shape"></path>
                    <path d="M69.8706758,12.2350773 L69.8706758,20.0716443 L82.0090128,10.2744062 L82.0090128,30.5876933 L88.0781813,30.5876933 L88.0781813,10.2805237 L100.216518,20.0716443 L100.216518,12.2350773 L85.0375279,0 L69.8706758,12.2350773 Z" id="Shape"></path>
                    <g id="Finger" transform="translate(39.000000, 39.000000)">
                        <path d="M3.55941739,49.8218491 C1.88129229,49.8218491 0.524833126,48.4515204 0.524833126,46.7630798 C0.524833126,21.4639987 20.9445506,0.881539879 46.0435971,0.881539879 C71.1396089,0.881539879 91.562361,21.4639987 91.562361,46.760021 C91.562361,48.4484617 90.1998327,49.8187903 88.5277768,49.8187903 C86.8496517,49.8187903 85.4931925,48.4484617 85.4931925,46.760021 C85.4931925,24.8347625 67.7954971,6.99907853 46.0435971,6.99907853 C24.2916971,6.99907853 6.59400165,24.8347625 6.59400165,46.7630798 C6.59400165,48.4515204 5.23147332,49.8218491 3.55941739,49.8218491" id="Shape"></path>
                        <path d="M45.9829054,62.0232799 C27.7207773,62.0232799 30.4245919,39.6606174 30.4245919,39.6606174 C30.4245919,39.6606174 33.5411099,32.5795664 45.9829054,32.5795664 C58.43077,32.5795664 61.671706,39.6606174 61.671706,39.6606174 C61.671706,39.6606174 64.2389643,62.0232799 45.9829054,62.0232799 M46.0435971,25.3516945 C26.971235,25.3516945 21.4179458,42.7224455 21.4179458,83.4836055 L21.4179458,85.3127496 C28.5249421,89.9376088 36.9580518,92.6446196 46.0435971,92.6446196 C55.1230732,92.6446196 63.5561829,89.9376088 70.6631792,85.3158083 L70.6631792,83.4866643 C70.6631792,42.7224455 65.10989,25.3516945 46.0435971,25.3516945" id="Shape"></path>
                    </g>
                </g>
                <g id="tap" transform="translate(583.244781, 208.095033)" stroke="#FFFFFF" fill="#EE6392" sketch:type="MSShapeGroup">
                    <path d="M3.06597083,50.0675167 C1.37355493,50.0675167 0,48.6656263 0,46.9382969 C0,21.05652 20.6309177,0 45.9926285,0 C71.3482073,0 91.979125,21.05652 91.979125,46.9351677 C91.979125,48.662497 90.608636,50.0643875 88.9131542,50.0643875 C87.2238042,50.0643875 85.8471833,48.662497 85.8471833,46.9351677 C85.8471833,24.5049202 67.9633755,6.25843959 45.9926285,6.25843959 C24.0126836,6.25843959 6.13194167,24.5049202 6.13194167,46.9382969 C6.13194167,48.6656263 4.75838673,50.0675167 3.06597083,50.0675167" id="Shape"></path>
                    <path d="M45.9313091,62.5499745 C27.4833625,62.5499745 30.2120766,39.6753778 30.2120766,39.6753778 C30.2120766,39.6753778 33.3608286,32.4281047 45.9313091,32.4281047 C58.5048554,32.4281047 61.7823783,39.6753778 61.7823783,39.6753778 C61.7823783,39.6753778 64.3731236,62.5499745 45.9313091,62.5499745 M45.9895625,25.0337584 C26.7230018,25.0337584 21.1122752,42.8077268 21.1122752,84.5014514 L21.1122752,86.3789832 C28.2897129,91.1041051 36.8131118,93.8765939 45.9895625,93.8765939 C55.1690792,93.8765939 63.6894121,91.1009759 70.8668498,86.3789832 L70.8668498,84.5014514 C70.8668498,42.8077268 65.2591892,25.0337584 45.9895625,25.0337584" id="Shape"></path>
                </g>
                <text id="1.-Swipe-the-globe-t" sketch:type="MSTextLayer" font-family="Exo" font-size="22" font-weight="normal" fill="#FFFFFF">
                    <tspan x="185.244781" y="123.095033">1. Swipe the globe to access </tspan>
                    <tspan x="185.244781" y="152.095033">different parts of the world!</tspan>
                </text>
                <text id="Floating-in-Air" sketch:type="MSTextLayer" font-family="Exo" font-size="32" font-weight="473" fill="#FFFFFF">
                    <tspan x="87" y="61">Floating in Air</tspan>
                </text>
                <text id="Global-Gender-Gap-" sketch:type="MSTextLayer" font-family="Exo" font-size="22" font-weight="473" fill="#FFFFFF">
                    <tspan x="297" y="61">Global Gender Gap </tspan>
                </text>
                <path d="M699.898442,395.223313 C699.898442,395.223313 738.043843,406.136504 755.39255,425.13408 C772.741257,444.131655 771.771299,459.686992 775.562078,478.078227" id="Path-1288" stroke="#FFFFFF" stroke-width="6" stroke-linecap="round" stroke-linejoin="round" sketch:type="MSShapeGroup" transform="translate(737.730260, 436.650770) rotate(-14.000000) translate(-737.730260, -436.650770) "></path>
                <path id="Path-1288-decoration-1" d="M775.476816,477.661138 C775.806946,473.764557 776.15211,470.438599 776.587344,466.552849 C774.513911,466.885829 772.736683,467.17124 770.66325,467.50422 C772.304077,471.073143 773.739418,474.13243 775.476816,477.661138 C775.476816,477.661138 775.476816,477.661138 775.476816,477.661138 Z" stroke="#FFFFFF" stroke-width="6" stroke-linecap="round" stroke-linejoin="round"></path>
            </g>
        </g>
    </g>
</svg>