<?xml version="1.0" encoding="UTF-8" standalone="no"?>
<svg width="998px" height="894px" viewBox="0 0 998 894" version="1.1" xmlns="http://www.w3.org/2000/svg" xmlns:xlink="http://www.w3.org/1999/xlink" xmlns:sketch="http://www.bohemiancoding.com/sketch/ns">
    <!-- Generator: Sketch 3.3 (11970) - http://www.bohemiancoding.com/sketch -->
    <title>Front_Clouds</title>
    <desc>Created with Sketch.</desc>
    <defs>
        <filter x="-50%" y="-50%" width="200%" height="200%" filterUnits="objectBoundingBox" id="filter-1">
            <feMorphology radius="2" in="SourceAlpha" operator="dilate" result="shadowSpreadOuter1"></feMorphology>
            <feOffset dx="2" dy="2" in="shadowSpreadOuter1" result="shadowOffsetOuter1"></feOffset>
            <feGaussianBlur stdDeviation="2" in="shadowOffsetOuter1" result="shadowBlurOuter1"></feGaussianBlur>
            <feColorMatrix values="0 0 0 0 0.31114477   0 0 0 0 0.31114477   0 0 0 0 0.31114477  0 0 0 0.35 0" in="shadowBlurOuter1" type="matrix" result="shadowMatrixOuter1"></feColorMatrix>
            <feMerge>
                <feMergeNode in="shadowMatrixOuter1"></feMergeNode>
                <feMergeNode in="SourceGraphic"></feMergeNode>
            </feMerge>
        </filter>
        <filter x="-50%" y="-50%" width="200%" height="200%" filterUnits="objectBoundingBox" id="filter-2">
            <feMorphology radius="2" in="SourceAlpha" operator="dilate" result="shadowSpreadOuter1"></feMorphology>
            <feOffset dx="2" dy="2" in="shadowSpreadOuter1" result="shadowOffsetOuter1"></feOffset>
            <feGaussianBlur stdDeviation="2" in="shadowOffsetOuter1" result="shadowBlurOuter1"></feGaussianBlur>
            <feColorMatrix values="0 0 0 0 0.31114477   0 0 0 0 0.31114477   0 0 0 0 0.31114477  0 0 0 0.35 0" in="shadowBlurOuter1" type="matrix" result="shadowMatrixOuter1"></feColorMatrix>
            <feMerge>
                <feMergeNode in="shadowMatrixOuter1"></feMergeNode>
                <feMergeNode in="SourceGraphic"></feMergeNode>
            </feMerge>
        </filter>
        <filter x="-50%" y="-50%" width="200%" height="200%" filterUnits="objectBoundingBox" id="filter-3">
            <feMorphology radius="2" in="SourceAlpha" operator="dilate" result="shadowSpreadOuter1"></feMorphology>
            <feOffset dx="2" dy="2" in="shadowSpreadOuter1" result="shadowOffsetOuter1"></feOffset>
            <feGaussianBlur stdDeviation="2" in="shadowOffsetOuter1" result="shadowBlurOuter1"></feGaussianBlur>
            <feColorMatrix values="0 0 0 0 0.31114477   0 0 0 0 0.31114477   0 0 0 0 0.31114477  0 0 0 0.35 0" in="shadowBlurOuter1" type="matrix" result="shadowMatrixOuter1"></feColorMatrix>
            <feMerge>
                <feMergeNode in="shadowMatrixOuter1"></feMergeNode>
                <feMergeNode in="SourceGraphic"></feMergeNode>
            </feMerge>
        </filter>
        <filter x="-50%" y="-50%" width="200%" height="200%" filterUnits="objectBoundingBox" id="filter-4">
            <feMorphology radius="2" in="SourceAlpha" operator="dilate" result="shadowSpreadOuter1"></feMorphology>
            <feOffset dx="2" dy="2" in="shadowSpreadOuter1" result="shadowOffsetOuter1"></feOffset>
            <feGaussianBlur stdDeviation="2" in="shadowOffsetOuter1" result="shadowBlurOuter1"></feGaussianBlur>
            <feColorMatrix values="0 0 0 0 0.31114477   0 0 0 0 0.31114477   0 0 0 0 0.31114477  0 0 0 0.35 0" in="shadowBlurOuter1" type="matrix" result="shadowMatrixOuter1"></feColorMatrix>
            <feMerge>
                <feMergeNode in="shadowMatrixOuter1"></feMergeNode>
                <feMergeNode in="SourceGraphic"></feMergeNode>
            </feMerge>
        </filter>
        <filter x="-50%" y="-50%" width="200%" height="200%" filterUnits="objectBoundingBox" id="filter-5">
            <feMorphology radius="2" in="SourceAlpha" operator="dilate" result="shadowSpreadOuter1"></feMorphology>
            <feOffset dx="2" dy="2" in="shadowSpreadOuter1" result="shadowOffsetOuter1"></feOffset>
            <feGaussianBlur stdDeviation="2" in="shadowOffsetOuter1" result="shadowBlurOuter1"></feGaussianBlur>
            <feColorMatrix values="0 0 0 0 0.31114477   0 0 0 0 0.31114477   0 0 0 0 0.31114477  0 0 0 0.35 0" in="shadowBlurOuter1" type="matrix" result="shadowMatrixOuter1"></feColorMatrix>
            <feMerge>
                <feMergeNode in="shadowMatrixOuter1"></feMergeNode>
                <feMergeNode in="SourceGraphic"></feMergeNode>
            </feMerge>
        </filter>
        <filter x="-50%" y="-50%" width="200%" height="200%" filterUnits="objectBoundingBox" id="filter-6">
            <feMorphology radius="2" in="SourceAlpha" operator="dilate" result="shadowSpreadOuter1"></feMorphology>
            <feOffset dx="2" dy="2" in="shadowSpreadOuter1" result="shadowOffsetOuter1"></feOffset>
            <feGaussianBlur stdDeviation="2" in="shadowOffsetOuter1" result="shadowBlurOuter1"></feGaussianBlur>
            <feColorMatrix values="0 0 0 0 0.31114477   0 0 0 0 0.31114477   0 0 0 0 0.31114477  0 0 0 0.35 0" in="shadowBlurOuter1" type="matrix" result="shadowMatrixOuter1"></feColorMatrix>
            <feMerge>
                <feMergeNode in="shadowMatrixOuter1"></feMergeNode>
                <feMergeNode in="SourceGraphic"></feMergeNode>
            </feMerge>
        </filter>
    </defs>
    <g id="Page-1" stroke="none" stroke-width="1" fill="none" fill-rule="evenodd" sketch:type="MSPage">
        <g id="Long_Portrait-iPhone5" sketch:type="MSArtboardGroup" transform="translate(-557.000000, -186.000000)" fill="#FAF1DD">
            <g id="Front_Clouds" sketch:type="MSLayerGroup" transform="translate(561.000000, 190.000000)">
                <path d="M828.917769,570.170481 L926.293437,570.170481 C933.172318,570.170481 938.746978,575.746654 938.746978,582.625211 C938.746978,589.505281 933.171338,595.079941 926.293437,595.079941 L732.339123,595.079941 C725.460242,595.079941 719.885582,589.503768 719.885582,582.625211 C719.885582,582.045259 719.9252,581.474582 720.001877,580.915738 L720.001877,580.915738 L611.453541,580.915738 C604.57466,580.915738 599,575.339566 599,568.461009 C599,561.580939 604.57564,556.006279 611.453541,556.006279 L648.27874,556.006279 L648.27874,556.006279 C649.404342,532.788646 670.557938,516.932618 696.488372,516.932618 C698.712483,516.932618 700.901451,517.049268 703.045652,517.27721 C710.972015,502.881142 727.322947,493 746.207442,493 C772.858906,493 794.464187,512.680608 794.464187,536.957869 C794.464187,537.286557 794.460227,537.612163 794.452347,537.934712 C794.456294,537.934711 794.46024,537.934711 794.464187,537.934711 C813.577863,537.934711 829.072559,549.936739 829.072559,567.332257 C829.072559,568.343617 829.020185,569.288245 828.917769,570.170481 Z" id="FCloud_L3" filter="url(#filter-1)" sketch:type="MSShapeGroup"></path>
                <g id="FCloud_R3" transform="translate(0.000000, 562.000000)" sketch:type="MSShapeGroup">
                    <rect id="Rectangle-23" filter="url(#filter-2)" x="156.086064" y="145.426029" width="257.75722" height="27.8884861" rx="25"></rect>
                    <path d="M246.005458,57.3041092 C246.010467,57.3041079 246.015476,57.3041072 246.020486,57.3041072 C269.488246,57.3041072 288.657701,71.5524171 289.884447,92.4598045 L289.884447,92.4598045 L296.129078,92.4598045 C307.305183,92.4598045 316.38146,101.530409 316.38146,112.719567 C316.38146,123.911186 307.31416,132.97933 296.129078,132.97933 L20.5643336,132.97933 C9.38822878,132.97933 0.311951208,123.908726 0.311951208,112.719567 C0.311951208,101.527949 9.37925166,92.4598045 20.5643336,92.4598045 L61.5936294,92.4598045 C60.821299,89.679051 60.4162703,86.4522226 60.4162703,82.7091164 C60.4162703,51.9098012 87.8385567,30.6598293 121.665661,30.6598293 C124.488591,30.6598293 127.266917,30.8078182 129.988424,31.0969957 C140.04888,12.8334433 160.802137,0.297745222 184.771095,0.297745222 C218.598199,0.297745222 246.020486,25.2655233 246.020486,56.0648385 C246.020486,56.4818273 246.015459,56.8949078 246.005458,57.3041092 Z" id="Rectangle-27" filter="url(#filter-3)"></path>
                </g>
                <g id="FCloud_L4" transform="translate(565.000000, 736.000000)" sketch:type="MSShapeGroup">
                    <rect id="Rectangle-33" filter="url(#filter-4)" x="0.397258552" y="118.883709" width="195.529725" height="27.1162909" rx="25"></rect>
                    <path d="M195.347942,45.5210925 C195.343967,45.5210915 195.339992,45.521091 195.336016,45.521091 C179.8936,45.521091 166.796503,53.2955113 162.218067,65.4106423 L162.218063,65.4106429 L104.152223,65.4106429 C92.1989047,65.4106429 82.4914405,75.11204 82.4914405,87.0793197 C82.4914405,99.0492307 92.1893033,108.747997 104.152223,108.747997 L398.880418,108.747997 C410.833737,108.747997 420.541201,99.0465995 420.541201,87.0793197 C420.541201,75.1094087 410.843338,65.4106429 398.880418,65.4106429 L342.624148,65.4106429 L342.624148,65.4106429 C342.463943,41.1158057 320.764352,24.3771225 294.019663,24.3771225 C291.779484,24.3771225 289.574702,24.4945612 287.415009,24.7240425 C279.431383,10.230725 262.962322,0.28283278 243.941394,0.28283278 C217.097385,0.28283278 195.336016,20.0963896 195.336016,44.5376506 C195.336016,44.8685584 195.340005,45.1963646 195.347942,45.5210925 Z" id="Rectangle-32" filter="url(#filter-5)"></path>
                </g>
                <path d="M799.669766,30.0567145 C814.663306,32.2366973 826.016939,42.6510368 826.016939,57.0125379 C826.016939,58.343724 825.919393,59.5507761 825.730442,60.6451062 L825.730442,60.6451062 L885.627393,60.6451062 C893.83324,60.6451062 900.500162,67.3040404 900.500162,75.518252 C900.500162,83.7342697 893.841396,90.3913978 885.627393,90.3913978 L638.744083,90.3913978 C630.538236,90.3913978 623.871315,83.7324636 623.871315,75.518252 C623.871315,67.3022343 630.53008,60.6451062 638.744083,60.6451062 L648.645417,60.6451062 L648.645417,60.6451062 C652.425342,41.9887271 670.815837,29.6333268 692.933162,29.6333268 C694.620789,29.6333268 696.286717,29.7052625 697.926112,29.8464442 C706.712594,12.2935698 726.162816,0.091245163 748.745629,0.091245163 C771.418507,0.091245163 790.933757,12.3910954 799.669764,30.0567141 Z" id="FCloud_L1" filter="url(#filter-6)" sketch:type="MSShapeGroup"></path>
            </g>
        </g>
    </g>
</svg>