<?xml version="1.0" encoding="UTF-8" standalone="no"?>
<svg width="1440px" height="120px" viewBox="0 0 1440 120" version="1.1" xmlns="http://www.w3.org/2000/svg" xmlns:xlink="http://www.w3.org/1999/xlink" xmlns:sketch="http://www.bohemiancoding.com/sketch/ns">
    <!-- Generator: Sketch 3.3 (11970) - http://www.bohemiancoding.com/sketch -->
    <title>TreesGroundL</title>
    <desc>Created with Sketch.</desc>
    <defs>
        <rect id="path-1" x="0" y="0" width="1440" height="51.5384615"></rect>
        <rect id="path-2" x="0" y="0" width="1440" height="51.5384615"></rect>
    </defs>
    <g id="Page-1" stroke="none" stroke-width="1" fill="none" fill-rule="evenodd" sketch:type="MSPage">
        <g id="iPad-Portrait" sketch:type="MSArtboardGroup" transform="translate(0.000000, -640.000000)">
            <g id="TreesGroundL" sketch:type="MSLayerGroup" transform="translate(0.000000, 640.000000)">
                <g id="Trees" transform="translate(2.700000, 0.000000)" sketch:type="MSShapeGroup">
                    <path d="M170.217519,93.494185 C176.52907,100.836491 186.292386,105.547024 197.250318,105.547024 C212.065251,105.547024 224.696596,96.9368441 229.56642,84.853583 L229.56642,84.853583 C233.973915,86.5520753 238.812647,87.4903284 243.889324,87.4903284 C245.868462,87.4903284 247.811436,87.3477305 249.706794,87.0730822 L249.706794,87.0730822 C255.160418,97.9775589 267.131526,105.547024 281.022291,105.547024 C300.053688,105.547024 315.481684,91.3383282 315.481684,73.8110132 C315.481684,56.2836982 300.053688,42.075002 281.022291,42.075002 C280.343071,42.075002 279.66844,42.0931001 278.998937,42.1288013 C273.974484,28.7230409 260.152924,19.0937525 243.889324,19.0937525 C240.256441,19.0937525 236.745407,19.5742196 233.427053,20.4699206 C228.354584,8.76257856 215.930897,0.489883814 201.40921,0.489883814 C187.390544,0.489883814 175.327048,8.19938505 169.94473,19.2658849 C168.96378,19.1522857 167.964221,19.0937525 166.949817,19.0937525 C153.824716,19.0937525 143.184719,28.8928533 143.184719,40.9806568 C143.184719,41.3476216 143.194525,41.7124771 143.213909,42.0750131 C143.20418,42.0750057 143.19445,42.075002 143.184719,42.075002 C124.153322,42.075002 108.725326,56.2836982 108.725326,73.8110132 C108.725326,91.3383282 124.153322,105.547024 143.184719,105.547024 C154.142652,105.547024 163.905968,100.836491 170.217519,93.494185 Z" id="Oval-95" fill="#9ED355"></path>
                    <path d="M351.239048,52.5678861 C354.426364,51.1052529 358.020679,50.2825911 361.823626,50.2825911 C362.185711,50.2825911 362.545904,50.2900487 362.904035,50.3048063 C365.924879,41.4135848 374.938693,34.9617581 385.588724,34.9617581 C397.163058,34.9617581 406.804839,42.5820719 408.921668,52.6722764 C414.334838,51.127791 419.775238,50.2825911 424.801137,50.2825911 C429.51492,50.2825911 434.040152,51.0260743 438.246119,52.3926576 C443.51652,47.0621243 451.112825,43.7165198 459.557594,43.7165198 C466.162592,43.7165198 472.248547,45.7631742 477.108549,49.2054402 L477.108549,49.2054402 C483.412733,42.8087519 492.512945,38.7919663 502.631835,38.7919663 C516.872382,38.7919663 529.095378,46.7474439 534.346842,58.0959398 C535.155825,58.0324414 535.971872,58.0000002 536.794163,58.0000002 C548.421881,58.0000002 558.801331,64.4868801 565.610022,73.5472792 C568.198653,72.6564932 571.001139,72.1694954 573.927131,72.1694954 C587.052232,72.1694954 597.692229,81.9685962 597.692229,94.0563997 C597.692229,106.144203 587.052232,115.943304 573.927131,115.943304 C568.885754,115.943304 564.211015,114.497601 560.365037,112.031794 L560.365037,112.031794 C553.953437,112.752783 545.74352,112 536.794163,112 C518.389085,112 503.111488,115.183914 500.171871,102.184369 C490.876136,101.580524 482.598267,97.581064 476.791718,91.5245748 C472.795849,94.2751327 467.999011,96.0930601 462.781609,96.6280155 C455.428026,108.663332 432.724269,109.999998 414.300001,109.999998 C393.659574,109.999998 375.014291,108.322432 372.335448,91.8043482 L372.335448,91.8043482 C369.166231,93.2461972 365.597664,94.0563997 361.823626,94.0563997 C359.750759,94.0563997 357.739877,93.8119871 355.823103,93.3527469 C349.616116,101.706718 339.185285,107.188542 327.364233,107.188542 C308.332836,107.188542 292.90484,92.979846 292.90484,75.452531 C292.90484,57.925216 308.332836,43.7165198 327.364233,43.7165198 C336.632296,43.7165198 345.045787,47.0862172 351.239048,52.5678861 Z" id="Oval-95" fill="#9ED355"></path>
                    <path d="M110.870714,44.8125895 C110.632149,43.568379 110.507708,42.2879017 110.507708,40.9806568 C110.507708,28.8928533 121.147705,19.0937525 134.272807,19.0937525 C135.28721,19.0937525 136.28677,19.1522857 137.26772,19.2658849 L137.26772,19.2658849 C142.650038,8.19938505 154.713533,0.489883814 168.7322,0.489883814 C187.763597,0.489883814 203.191593,14.69858 203.191593,32.225895 C203.191593,32.3991791 203.190085,32.5721387 203.18708,32.7447635 L203.18708,32.7447635 C205.410973,32.4034849 207.694997,32.225895 210.024059,32.225895 C227.392678,32.225895 242.256659,42.1020221 248.356258,56.0892509 C262.14669,60.2363162 272.110379,72.1785394 272.110379,86.2639888 C272.110379,103.791304 256.682383,118 237.650986,118 C227.86028,118 219.023247,114.239541 212.749851,108.201349 C211.84883,108.255426 210.939926,108.282887 210.024059,108.282887 C200.241399,108.282887 191.253302,105.149818 184.178256,99.9137722 C178.613017,103.465773 171.85707,105.547024 164.573308,105.547024 C154.271994,105.547024 145.026419,101.384104 138.711802,94.7852804 C132.476505,102.948695 122.168497,108.282887 110.507708,108.282887 C99.6413839,108.282887 89.9497857,103.650784 83.6339246,96.4136398 C75.10762,106.625821 61.7078801,113.207441 46.6390059,113.207441 C20.8809942,113.207441 0,93.9767055 0,70.2543912 C0,46.532077 20.8809942,27.3013416 46.6390059,27.3013416 C65.2624289,27.3013416 81.3363892,37.3542154 88.8120841,51.889207 C94.7356227,47.4630544 102.285361,44.810865 110.507708,44.810865 C110.628857,44.810865 110.74986,44.8114408 110.870714,44.8125895 Z" id="Oval-95" fill="#99BB6A"></path>
                </g>
                <g id="Ground" transform="translate(0.000000, 71.294872)">
                    <g id="Rectangle-110">
                        <use fill="none" sketch:type="MSShapeGroup" xlink:href="#path-1"></use>
                        <use fill="none" fill-rule="evenodd" xlink:href="#path-1"></use>
                        <use fill="#85471C" fill-rule="evenodd" xlink:href="#path-1"></use>
                    </g>
                    <g id="Rectangle-111">
                        <use sketch:type="MSShapeGroup" xlink:href="#path-2"></use>
                        <use xlink:href="#path-2"></use>
                    </g>
                </g>
            </g>
        </g>
    </g>
</svg>